# xmcd CD database file
#
# Track frame offsets:
#	150
#	12329
#	25001
#	38948
#	53254
#	66793
#	79166
#	94021
#	106940
#	119495
#	132379
#	144717
#	160066
#	173054
#	186332
#	200175
#	212918
#	225648
#
# Disc length: 3202 seconds
#
# Revision: 2
# Processed by: cddbd v1.5.2PL0 Copyright (c) Steve Scherf et al.
# Submitted via: CDex 1.70beta2
#
DISCID=f90c8012
DTITLE=Big Bill Broonzy - Mississippi River Blues - CD 1
DYEAR=1900
DGENRE=Blues
TTITLE0=Mississippi River Blues
TTITLE1=Long Tall Mama
TTITLE2=Worrying You Off My Mind Part 1
TTITLE3=Rising Sun Shine On
TTITLE4=Come Home Early
TTITLE5=Good Liquor Gonna Carry Me Down
TTITLE6=Good Jelly
TTITLE7=Bull Cow Blues
TTITLE8=I Can't Be Satisfied
TTITLE9=How You Want It Done
TTITLE10=Hattie Blues
TTITLE11=Friendless Blues
TTITLE12=Too Too Train Blues
TTITLE13=Big Billy Blues
TTITLE14=Horny Frog
TTITLE15=W.P.A. Rag
TTITLE16=It's Your Time Now
TTITLE17=Southern Flood Blues
EXTD=
EXTT0=
EXTT1=
EXTT2=
EXTT3=
EXTT4=
EXTT5=
EXTT6=
EXTT7=
EXTT8=
EXTT9=
EXTT10=
EXTT11=
EXTT12=
EXTT13=
EXTT14=
EXTT15=
EXTT16=
EXTT17=
PLAYORDER=
